<?xml version="1.0" standalone="no"?>
<!DOCTYPE svg PUBLIC "-//W3C//DTD SVG 20010904//EN"
 "http://www.w3.org/TR/2001/REC-SVG-20010904/DTD/svg10.dtd">
<svg version="1.0" xmlns="http://www.w3.org/2000/svg"
 width="1120.000000pt" height="520.000000pt" viewBox="0 0 1120.000000 520.000000"
 preserveAspectRatio="xMidYMid meet">
<metadata>
Created by potrace 1.16, written by Peter Selinger 2001-2019
</metadata>
<g transform="translate(0.000000,520.000000) scale(0.100000,-0.100000)"
fill="#FFFFFF" stroke="none">
<path d="M7790 2108 c0 -365 3 -680 6 -701 4 -20 21 -61 38 -89 24 -41 43 -59
86 -80 100 -51 287 -55 411 -9 97 37 96 34 59 132 -18 46 -34 86 -36 88 -2 2
-26 -6 -53 -18 -68 -29 -149 -29 -186 1 -52 41 -55 61 -55 393 l0 305 150 0
150 0 0 110 0 110 -150 0 -150 0 0 210 0 210 -135 0 -135 0 0 -662z"/>
<path d="M1398 2415 l-3 -285 -112 55 c-62 30 -122 55 -135 55 -17 0 -38 -19
-76 -69 -70 -92 -69 -109 7 -156 76 -45 189 -98 264 -121 l57 -18 0 -323 0
-323 140 0 140 0 0 298 0 297 262 0 c145 0 282 3 306 8 l42 7 0 -305 0 -305
145 0 145 0 0 735 0 735 -145 0 -145 0 0 -309 0 -309 -77 -9 c-97 -10 -445
-10 -495 0 l-38 8 0 309 0 310 -140 0 -140 0 -2 -285z"/>
<path d="M3193 2370 c-215 -39 -363 -185 -419 -415 -24 -97 -24 -333 -1 -429
35 -141 112 -241 225 -294 52 -25 68 -27 182 -27 116 0 129 2 182 28 31 15 74
45 96 67 l40 40 7 -55 6 -55 121 0 121 0 -8 43 c-4 23 -10 265 -14 537 l-6
495 -55 18 c-145 46 -361 67 -477 47z m235 -211 l32 -11 0 -294 c0 -315 -3
-339 -53 -392 -61 -66 -180 -84 -259 -40 -88 49 -135 191 -124 374 18 268 119
393 307 379 36 -3 80 -10 97 -16z"/>
<path d="M4347 2366 c-62 -23 -112 -61 -144 -110 -34 -51 -34 -51 -48 47 l-7
47 -115 0 -115 0 7 -32 c4 -18 9 -270 12 -560 l4 -528 134 0 134 0 3 378 c3
374 3 377 27 425 53 108 161 140 288 86 39 -17 42 -17 47 -1 5 19 46 209 46
216 0 2 -19 12 -42 21 -59 23 -182 29 -231 11z"/>
<path d="M6188 2365 c-267 -67 -425 -326 -404 -660 10 -171 49 -278 137 -370
93 -98 203 -139 374 -139 126 0 190 13 295 61 117 53 115 49 66 153 -22 49
-44 90 -49 90 -4 0 -25 -11 -45 -25 -62 -41 -150 -68 -227 -69 -124 -1 -212
59 -256 175 -11 27 -19 60 -19 73 0 22 4 23 93 29 176 10 340 65 424 140 66
60 96 128 101 227 3 69 0 96 -18 142 -25 69 -92 134 -166 162 -66 25 -229 31
-306 11z m203 -211 c74 -66 54 -171 -45 -229 -53 -31 -183 -65 -249 -65 l-50
0 6 44 c16 113 79 215 159 255 54 28 145 25 179 -5z"/>
<path d="M7105 2367 c-120 -31 -209 -98 -255 -192 -21 -43 -24 -65 -25 -150 0
-116 15 -156 84 -218 53 -48 96 -69 221 -107 58 -18 124 -43 147 -56 70 -40
91 -105 55 -173 -47 -93 -202 -95 -388 -5 -41 20 -76 35 -78 33 -7 -7 -76
-179 -76 -189 0 -16 117 -70 199 -92 104 -28 291 -30 376 -5 164 49 255 168
255 332 0 182 -84 269 -342 354 -117 39 -157 64 -181 114 -33 67 7 135 94 158
64 17 159 -9 247 -67 35 -24 68 -42 72 -39 4 2 34 37 66 76 46 56 56 74 48 87
-19 31 -128 97 -199 121 -86 28 -245 37 -320 18z"/>
<path d="M8866 2365 c-183 -47 -313 -180 -378 -385 -20 -65 -23 -95 -23 -225
0 -164 11 -219 65 -326 54 -107 161 -188 290 -220 76 -19 249 -17 330 4 77 20
209 83 217 103 5 14 -70 184 -82 184 -3 0 -23 -11 -43 -25 -107 -71 -254 -89
-353 -43 -78 36 -133 112 -145 201 l-6 44 98 6 c173 11 333 65 421 141 122
106 138 329 34 448 -61 69 -138 99 -265 104 -68 2 -120 -1 -160 -11z m209
-215 c61 -58 48 -156 -28 -211 -52 -38 -153 -69 -246 -76 l-74 -6 7 54 c14
107 78 208 159 249 57 29 145 24 182 -10z"/>
<path d="M9937 2366 c-63 -23 -116 -64 -146 -112 -32 -49 -36 -46 -46 39 l-7
57 -115 0 -115 0 7 -42 c3 -24 9 -276 11 -560 l5 -518 134 0 134 0 3 378 3
378 26 49 c37 73 92 108 166 108 34 0 80 -9 111 -21 28 -11 52 -19 52 -18 0 2
37 178 45 212 4 18 -3 25 -38 39 -58 23 -181 29 -230 11z"/>
<path d="M4730 1966 c0 -406 7 -485 49 -580 29 -68 92 -129 164 -161 80 -37
183 -39 267 -6 203 78 389 344 446 637 19 94 25 384 11 457 l-8 37 -131 0
-131 0 7 -132 c11 -217 -15 -404 -74 -533 -79 -173 -224 -281 -289 -216 -37
37 -41 84 -41 489 l0 392 -135 0 -135 0 0 -384z"/>
</g>
</svg>
